<?xml version="1.0" standalone="no"?>
<!DOCTYPE svg PUBLIC "-//W3C//DTD SVG 20010904//EN"
 "http://www.w3.org/TR/2001/REC-SVG-20010904/DTD/svg10.dtd">
<svg version="1.0" xmlns="http://www.w3.org/2000/svg"
 width="500.000000pt" height="500.000000pt" viewBox="0 0 500.000000 500.000000"
 preserveAspectRatio="xMidYMid meet">

<g transform="translate(0.000000,500.000000) scale(0.100000,-0.100000)"
fill="#000000" stroke="none">
<path d="M0 2500 l0 -2500 2500 0 2500 0 0 2500 0 2500 -2500 0 -2500 0 0
-2500z m1909 1163 c184 -93 214 -357 57 -489 -66 -55 -127 -76 -206 -71 -172
11 -283 127 -283 297 0 90 23 150 80 207 62 62 114 82 213 83 73 0 92 -4 139
-27z m826 -27 c37 -16 75 -67 75 -102 0 -38 -83 -41 -93 -4 -6 24 -51 36 -83
21 -17 -8 -24 -19 -24 -40 0 -38 23 -61 61 -61 16 0 48 -9 70 -21 75 -38 100
-147 48 -212 -21 -28 -77 -57 -108 -57 -18 0 -21 6 -21 39 0 34 5 43 30 58 23
13 30 25 30 48 0 35 -18 50 -76 59 -57 10 -98 37 -117 79 -23 47 -21 74 6 127
37 72 121 100 202 66z m363 -161 c34 -88 73 -189 87 -224 34 -88 33 -91 -19
-91 l-43 0 -48 131 c-33 92 -50 127 -56 117 -5 -9 -27 -68 -50 -132 l-41 -116
-49 0 -49 0 24 63 c27 69 143 368 157 406 6 14 13 20 18 15 4 -5 35 -81 69
-169z m317 -2 c47 -97 88 -173 91 -170 4 3 42 82 85 174 l79 168 48 0 47 0 0
-180 0 -180 -47 -3 -48 -3 0 73 -1 73 -62 -122 -62 -123 -42 0 -43 0 -62 123
-63 122 -3 -132 -3 -133 -49 0 -50 0 0 245 0 245 50 0 50 0 85 -177z m-1088
-30 c-9 24 1 21 24 -5 24 -29 23 -47 -2 -77 -27 -33 -34 -21 -8 13 21 26 21
28 4 44 -17 16 -17 16 -11 -1 6 -20 -27 -77 -45 -77 -6 0 1 15 15 33 26 34 26
34 6 52 -11 10 -20 23 -20 28 0 6 10 2 22 -9 19 -17 21 -17 15 -1z m61 -11
c20 -31 1 -27 -22 5 -12 16 -14 24 -6 21 7 -2 20 -14 28 -26z m-2 -67 c-9 -14
-21 -25 -27 -25 -6 0 -1 14 11 31 26 36 40 31 16 -6z m-806 -575 c0 -93 3
-170 8 -169 4 0 48 50 97 111 50 61 112 137 138 169 l49 59 84 0 c46 0 84 -4
84 -9 0 -5 -32 -49 -72 -98 -39 -48 -101 -124 -136 -168 -36 -44 -71 -87 -79
-96 -12 -14 5 -37 132 -185 81 -93 150 -177 156 -186 9 -17 2 -18 -84 -18
l-93 0 -50 63 c-137 172 -167 207 -173 207 -4 0 -15 -10 -25 -22 -11 -13 -51
-59 -90 -103 -38 -44 -74 -84 -78 -89 -4 -6 -8 151 -8 347 l0 357 70 0 70 0 0
-170z m1020 137 c102 -49 166 -130 196 -247 45 -178 -38 -370 -194 -447 -52
-25 -67 -28 -162 -28 -96 0 -110 3 -163 30 -262 131 -270 551 -13 682 72 37
100 43 196 39 67 -3 97 -9 140 -29z m532 18 c134 -28 209 -82 256 -183 25 -52
27 -68 27 -182 0 -119 -1 -128 -30 -184 -70 -138 -201 -196 -442 -196 l-103 0
0 155 0 155 75 0 75 0 0 -86 0 -87 63 7 c81 9 155 45 187 92 21 32 25 51 28
128 3 88 2 93 -30 146 -40 66 -98 99 -187 107 l-60 6 -3 -84 -3 -84 -72 -3
-73 -3 0 156 0 155 113 0 c61 0 142 -7 179 -15z m678 -55 l0 -70 -105 0 -105
0 0 -85 0 -84 153 -3 152 -3 0 -65 0 -65 -152 -3 -153 -3 0 -84 0 -85 105 0
105 0 0 -70 0 -70 -180 0 -180 0 0 380 0 380 180 0 180 0 0 -70z"/>
<path d="M1833 3593 c9 -2 23 -2 30 0 6 3 -1 5 -18 5 -16 0 -22 -2 -12 -5z"/>
<path d="M1748 3570 c-20 -11 -40 -25 -44 -32 -6 -10 -5 -10 7 -1 8 7 35 21
60 32 24 11 37 20 29 20 -8 0 -32 -9 -52 -19z"/>
<path d="M1690 3500 c-11 -11 -20 -25 -20 -31 0 -6 21 -30 46 -54 39 -36 46
-46 40 -68 -12 -48 -77 -47 -95 1 -6 17 -10 21 -10 10 -1 -25 34 -58 62 -58
34 0 67 28 67 56 0 17 -15 40 -45 70 -25 24 -45 50 -45 58 0 17 24 27 48 20
14 -5 15 -4 2 5 -21 15 -27 14 -50 -9z"/>
<path d="M1870 3509 c0 -6 -13 -28 -29 -48 l-30 -38 63 -65 c35 -36 73 -68 85
-71 26 -6 28 9 2 18 -24 7 -121 111 -121 129 0 8 18 30 40 50 38 34 39 36 15
36 -14 0 -25 -5 -25 -11z"/>
<path d="M1602 3375 c0 -16 2 -22 5 -12 2 9 2 23 0 30 -3 6 -5 -1 -5 -18z"/>
<path d="M2339 2797 c-151 -79 -159 -327 -15 -424 42 -29 57 -33 112 -33 81 0
121 16 166 69 76 89 79 247 6 336 -64 77 -179 99 -269 52z m149 -167 c26 -25
29 -76 5 -102 -9 -10 -30 -18 -50 -18 -65 0 -96 69 -51 117 27 28 67 30 96 3z"/>
</g>
</svg>
